<?xml version="1.0" encoding="utf-8"?>
<svg xmlns="http://www.w3.org/2000/svg"
	xmlns:xlink="http://www.w3.org/1999/xlink"
	width="128px" height="132px" viewBox="0 0 64 66">
<path fillRule="evenodd" d="M 63.32 48.83C 63.32 48.83 62.75 49.05 62.75 49.05 62.07 49.48 61.23 49.09 60.82 48.39 60.82 48.39 57.82 42.81 57.82 42.81 55.99 55.61 45.01 65.19 32 65.19 18.98 65.19 8.01 55.61 6.18 42.8 6.18 42.8 3.18 48.39 3.18 48.39 2.77 49.09 1.93 49.48 1.25 49.05 1.25 49.05 0.68 48.83 0.68 48.83 0 48.39-0.22 47.48 0.19 46.78 0.19 46.78 5.33 37.32 5.33 37.32 5.34 37.31 5.33 37.3 5.34 37.28 5.34 37.28 5.71 36.65 5.71 36.65 5.91 36.3 6.24 36.07 6.6 35.99 6.95 35.9 7.34 35.95 7.68 36.17 7.68 36.17 8.3 36.57 8.3 36.57 8.31 36.58 8.32 36.59 8.33 36.6 8.33 36.6 17.43 42.74 17.43 42.74 18.11 43.18 18.33 44.1 17.93 44.8 17.93 44.8 17.52 45.25 17.52 45.25 17.11 45.95 16.19 45.97 15.51 45.54 15.51 45.54 10.07 41.84 10.07 41.84 11.36 52.22 19.74 60.17 30 61.1 30 61.1 30 21 30 21 30 21 22 21 22 21 20.9 21 20 20.1 20 19 20 17.89 20.9 17 22 17 22 17 30.11 17 30.11 17 30.12 16.95 30.12 16.88 30.14 16.83 26.6 15.98 23.97 12.8 23.97 9 23.97 4.55 27.58 0.94 32.03 0.94 36.48 0.94 40.09 4.55 40.09 9 40.09 12.82 37.43 16.02 33.86 16.85 33.88 16.89 33.88 16.95 33.89 17 33.89 17 42 17 42 17 43.1 17 44 17.89 44 19 44 20.1 43.1 21 42 21 42 21 34 21 34 21 34 21 34 61.1 34 61.1 44.26 60.17 52.65 52.21 53.93 41.84 53.93 41.84 48.49 45.54 48.49 45.54 47.81 45.97 46.89 45.95 46.48 45.25 46.48 45.25 46.07 44.8 46.07 44.8 45.67 44.1 45.89 43.18 46.57 42.74 46.57 42.74 55.67 36.6 55.67 36.6 55.68 36.59 55.69 36.58 55.7 36.57 55.7 36.57 56.32 36.17 56.32 36.17 56.66 35.95 57.05 35.9 57.4 35.99 57.76 36.07 58.09 36.3 58.29 36.65 58.29 36.65 58.66 37.28 58.66 37.28 58.67 37.3 58.66 37.31 58.67 37.32 58.67 37.32 63.81 46.78 63.81 46.78 64.22 47.48 64 48.39 63.32 48.83ZM 36.09 9C 36.09 6.76 34.27 4.94 32.03 4.94 29.79 4.94 27.97 6.76 27.97 9 27.97 11.24 29.79 13.06 32.03 13.06 34.27 13.06 36.09 11.24 36.09 9Z" fill="rgb(27,27,27)"/></svg>