<?xml version="1.0" encoding="utf-8"?>
<svg xmlns="http://www.w3.org/2000/svg"
	xmlns:xlink="http://www.w3.org/1999/xlink"
	width="130px" height="128px" viewBox="0 0 65 64">
<path fillRule="evenodd" d="M 63.58 21.85C 63.58 21.85 33.09 63.36 33.09 63.36 32.76 63.81 32.34 64.03 31.91 64.03 31.49 64.03 31.06 63.8 30.74 63.35 30.74 63.35 0.73 21.53 0.73 21.53 0.09 20.63-0.01 19.11 0.51 18.14 0.51 18.14 9.23 1.75 9.23 1.75 9.74 0.77 11.07-0.02 12.17-0.02 12.17-0.02 31.93-0.02 31.93-0.02 31.95-0.02 31.96-0.03 31.98-0.03 32-0.03 32.02-0.02 32.05-0.02 32.05-0.02 52.17-0.02 52.17-0.02 53.27-0.02 54.58 0.78 55.09 1.75 55.09 1.75 63.84 18.47 63.84 18.47 64.35 19.44 64.23 20.96 63.58 21.85ZM 58.52 21.98C 58.52 21.98 46.95 21.98 46.95 21.98 46.95 21.98 36.46 52.01 36.46 52.01 36.46 52.01 58.52 21.98 58.52 21.98ZM 31.96 52.76C 31.96 52.76 42.71 21.98 42.71 21.98 42.71 21.98 21.75 21.98 21.75 21.98 21.75 21.98 31.96 52.76 31.96 52.76ZM 41.93 17.98C 41.93 17.98 32.12 5.35 32.12 5.35 32.12 5.35 23.33 17.98 23.33 17.98 23.33 17.98 41.93 17.98 41.93 17.98ZM 27.47 51.94C 27.47 51.94 17.53 21.98 17.53 21.98 17.53 21.98 5.98 21.98 5.98 21.98 5.98 21.98 27.47 51.94 27.47 51.94ZM 11.95 5.15C 11.95 5.15 5.12 17.98 5.12 17.98 5.12 17.98 16.2 17.98 16.2 17.98 16.2 17.98 11.95 5.15 11.95 5.15ZM 19.79 16.07C 19.79 16.07 28.2 3.98 28.2 3.98 28.2 3.98 15.77 3.98 15.77 3.98 15.77 3.98 19.79 16.07 19.79 16.07ZM 36.13 3.98C 36.13 3.98 45.01 15.41 45.01 15.41 45.01 15.41 49 3.98 49 3.98 49 3.98 36.13 3.98 36.13 3.98ZM 52.64 5.69C 52.64 5.69 48.35 17.98 48.35 17.98 48.35 17.98 59.07 17.98 59.07 17.98 59.07 17.98 52.64 5.69 52.64 5.69Z" fill="rgb(255,255,255)"/></svg>