<?xml version="1.0" encoding="utf-8"?>
<svg xmlns="http://www.w3.org/2000/svg"
	xmlns:xlink="http://www.w3.org/1999/xlink"
	width="132px" height="98px" viewBox="0 0 66 49">
<path fillRule="evenodd" d="M 65.01 34.36C 65.02 34.56 65.04 34.77 65.04 34.98 65.04 42.69 58.79 48.94 51.08 48.94 43.37 48.94 36.91 42.69 36.91 34.98 36.91 33.79 37.08 32.64 37.37 31.54 36.51 31.24 34.99 30.83 32.98 30.83 30.92 30.83 29.44 31.27 28.62 31.6 28.88 32.69 29.04 33.81 29.04 34.98 29.04 42.69 22.79 48.94 15.08 48.94 7.37 48.94 0.92 42.69 0.92 34.98 0.92 34.68 0.94 34.4 0.96 34.11 0.92 33.93 0.9 33.74 0.91 33.55 0.97 32.68 4.03 13.72 4.54 10.66 4.59 10.37 4.62 10.06 4.67 9.73 5.06 6.65 5.79 0.94 15.01 0.94 16.12 0.94 17.01 1.83 17.01 2.94 17.01 4.04 16.12 4.94 15.01 4.94 9.31 4.94 9.01 7.28 8.63 10.24 8.59 10.62 8.54 10.98 8.48 11.32 8.24 12.75 7.15 18.51 6.22 24.13 8.66 22.19 11.75 21.02 15.08 21.02 20.21 21.02 24.67 23.79 27.1 27.9 28.32 27.4 30.29 26.83 32.98 26.83 35.7 26.83 37.74 27.4 38.94 27.85 41.44 23.77 45.98 21.02 51.08 21.02 54.26 21.02 57.18 22.09 59.53 23.88 58.61 18.33 57.55 12.72 57.32 11.32 57.26 10.98 57.21 10.62 57.17 10.24 56.79 7.28 56.49 4.94 50.79 4.94 49.69 4.94 48.79 4.04 48.79 2.94 48.79 1.83 49.69 0.94 50.79 0.94 60.01 0.94 60.74 6.65 61.13 9.73 61.18 10.06 61.21 10.37 61.26 10.66 61.77 13.72 65.03 32.81 65.09 33.67 65.1 33.91 65.07 34.14 65.01 34.36ZM 15.08 25.02C 9.57 25.02 4.92 29.58 4.92 34.98 4.92 40.38 9.57 44.94 15.08 44.94 20.58 44.94 25.04 40.47 25.04 34.98 25.04 29.48 20.58 25.02 15.08 25.02ZM 61.01 34.44C 60.96 34.29 60.91 34.13 60.9 33.96 60.87 33.61 60.84 33.22 60.8 32.82 59.81 28.36 55.83 25.02 51.08 25.02 45.57 25.02 40.91 29.58 40.91 34.98 40.91 40.38 45.57 44.94 51.08 44.94 56.57 44.94 61.04 40.47 61.04 34.98 61.04 34.8 61.02 34.62 61.01 34.44Z" fill="rgb(27,27,27)"/></svg>