<?xml version="1.0" encoding="utf-8"?>
<svg xmlns="http://www.w3.org/2000/svg"
	xmlns:xlink="http://www.w3.org/1999/xlink"
	width="128px" height="104px" viewBox="0 0 64 52">
<path fillRule="evenodd" d="M 60 41.99C 60 41.99 34 41.99 34 41.99 34 41.99 34 48 34 48 34 48 44 48 44 48 45.1 48 46 48.9 46 50 46 51.1 45.1 52 44 52 44 52 20 52 20 52 18.9 52 18 51.1 18 50 18 48.9 18.9 48 20 48 20 48 30 48 30 48 30 48 30 41.99 30 41.99 30 41.99 4 41.99 4 41.99 1.8 41.99-0 40.19-0 37.99-0 37.99-0 3.98-0 3.98-0 1.78 1.8-0.02 4-0.02 4-0.02 60-0.02 60-0.02 62.2-0.02 64 1.78 64 3.98 64 3.98 64 37.99 64 37.99 64 40.19 62.2 41.99 60 41.99ZM 60 3.98C 60 3.98 4 3.98 4 3.98 4 3.98 4 37.99 4 37.99 4 37.99 60 37.99 60 37.99 60 37.99 60 3.98 60 3.98Z" fill="rgb(27,27,27)"/></svg>